<svg xmlns="http://www.w3.org/2000/svg" viewBox="0 0 24 24" fill="currentColor">
  <path d="M12 .5C5.73.5.5 5.73.5 12.02c0 5.1 3.29 9.43 7.86 10.96.57.1.78-.25.78-.55 0-.27-.01-1-.02-1.96-3.2.7-3.88-1.5-3.88-1.5-.52-1.33-1.27-1.68-1.27-1.68-1.04-.71.08-.7.08-.7 1.15.08 1.75 1.18 1.75 1.18 1.02 1.74 2.68 1.24 3.33.95.1-.74.4-1.24.72-1.52-2.55-.29-5.23-1.28-5.23-5.7 0-1.26.45-2.29 1.17-3.1-.12-.29-.51-1.47.11-3.06 0 0 .95-.31 3.12 1.18a10.84 10.84 0 0 1 2.84-.38c.96.01 1.93.13 2.84.38 2.16-1.5 3.11-1.18 3.11-1.18.62 1.59.23 2.77.11 3.06.73.81 1.16 1.84 1.16 3.1 0 4.43-2.69 5.4-5.25 5.68.41.35.77 1.04.77 2.1 0 1.52-.01 2.75-.01 3.12 0 .3.21.66.79.55C20.21 21.44 23.5 17.11 23.5 12.02 23.5 5.73 18.27.5 12 .5z"/>
</svg>
